<mxfile host="app.diagrams.net" modified="2023-11-27T12:40:48.497Z" agent="Mozilla/5.0 (Windows NT 10.0; Win64; x64) AppleWebKit/537.36 (KHTML, like Gecko) Chrome/109.0.0.0 Safari/537.36" version="22.1.4" etag="zxM0YeDndK7SLrEOcd4c" type="github">
  <diagram name="Page-1" id="_epDmQ7DwJANLle-jRv4">
    <mxGraphModel>
      <root>
        <mxCell id="0" />
        <mxCell id="1" parent="0" />
      </root>
    </mxGraphModel>
  </diagram>
</mxfile>
